<svg
 xmlns="http://www.w3.org/2000/svg"
 xmlns:xlink="http://www.w3.org/1999/xlink"
 width="29px" height="18px">
<path fill-rule="evenodd"  fill="rgb(9, 128, 203)"
 d="M27.280,0.944 L2.502,0.944 C1.567,0.944 0.023,1.689 0.023,2.602 L0.023,15.589 C0.023,16.503 1.567,17.997 2.502,17.997 L27.280,17.997 C28.215,17.997 29.000,16.503 29.000,15.589 L29.000,2.602 C29.000,1.689 28.215,0.944 27.280,0.944 ZM14.955,8.639 C14.582,8.961 15.200,8.960 14.828,8.638 L3.187,1.986 L25.861,1.986 L14.955,8.639 ZM10.061,7.787 L0.969,15.174 L0.969,3.282 L10.061,7.787 ZM11.191,8.761 L14.080,10.279 C14.163,10.291 14.926,10.624 14.843,10.624 C14.778,10.624 15.106,10.751 15.654,10.279 L17.917,8.900 L27.257,16.980 L1.525,16.980 L11.191,8.761 ZM19.636,8.000 L27.991,3.282 L27.991,15.176 L19.636,8.000 Z"/>
</svg>
